<?xml version="1.0" encoding="UTF-8" standalone="no"?>
<svg
   xmlns:dc="http://purl.org/dc/elements/1.1/"
   xmlns:cc="http://creativecommons.org/ns#"
   xmlns:rdf="http://www.w3.org/1999/02/22-rdf-syntax-ns#"
   xmlns:svg="http://www.w3.org/2000/svg"
   xmlns="http://www.w3.org/2000/svg"
   xmlns:sodipodi="http://sodipodi.sourceforge.net/DTD/sodipodi-0.dtd"
   xmlns:inkscape="http://www.inkscape.org/namespaces/inkscape"
   inkscape:version="1.0 (4035a4f, 2020-05-01)"
   sodipodi:docname="wolfbuilder.svg"
   xml:space="preserve"
   style="enable-background:new 0 0 512.001 512.001;"
   viewBox="0 0 512.001 512.001"
   y="0px"
   x="0px"
   id="Layer_1"
   version="1.1"><metadata
   id="metadata1162"><rdf:RDF><cc:Work
       rdf:about=""><dc:format>image/svg+xml</dc:format><dc:type
         rdf:resource="http://purl.org/dc/dcmitype/StillImage" /><dc:title></dc:title></cc:Work></rdf:RDF></metadata><defs
   id="defs1160" /><sodipodi:namedview
   inkscape:current-layer="Layer_1"
   inkscape:window-maximized="0"
   inkscape:window-y="157"
   inkscape:window-x="2012"
   inkscape:cy="286.73808"
   inkscape:cx="356.3546"
   inkscape:zoom="1.4162449"
   inkscape:snap-grids="true"
   showgrid="false"
   id="namedview1158"
   inkscape:window-height="1021"
   inkscape:window-width="1541"
   inkscape:pageshadow="2"
   inkscape:pageopacity="0"
   guidetolerance="10"
   gridtolerance="10"
   objecttolerance="10"
   borderopacity="1"
   bordercolor="#666666"
   pagecolor="#ffffff" />
<path
   id="path1099"
   d="M304.804,471.366h-97.621c0,0-0.75,0.059,0,10.159c1.162,15.661,21.854,30.476,48.81,30.476h0.113  c26.833,0,47.429-14.815,48.586-30.476C305.438,471.424,304.804,471.366,304.804,471.366z"
   style="fill:#FFDEB7;" />
<g
   id="g1105">
	<path
   id="path1101"
   d="M354.156,58.507c-18.553,20.358-16.332,52.114,4.695,69.906l49.66,42.019   c6.031-89.424-2.604-144.821-10.071-153.797C391.335,19.767,373.847,36.901,354.156,58.507z"
   style="fill:#C3B9B1;" />
	<path
   id="path1103"
   d="M113.56,16.635c-7.469,8.976-16.104,64.373-10.071,153.797l49.66-42.019   c21.027-17.791,23.247-49.547,4.695-69.906C138.154,36.901,120.665,19.767,113.56,16.635z"
   style="fill:#C3B9B1;" />
</g>
<path
   id="path1107"
   d="M345.398,455.112c17.778-40.127,73.143-32.508,73.143-32.508v-24.381l48.762,32.508v-56.889  l24.381,8.127c0-35.762-16.117-142.519-76.77-220.725c-80.12-103.307-237.707-103.307-317.827,0  c-60.653,78.205-76.77,184.962-76.77,220.725l24.381-8.127v56.889l48.762-32.508v24.381c0,0,55.365-7.619,73.143,32.508  l32.508-8.127h97.524L345.398,455.112z"
   style="fill:#FFEBD2;" />
<g
   id="g1113">
	<path
   id="path1109"
   d="M167.45,340.271l72.297,98.587V227.556H57.774C29.067,291.03,20.318,355.68,20.318,381.969   l24.381-8.127v56.889c23.39-51.456,54.855-81.372,77.352-97.497C136.635,322.78,156.838,325.801,167.45,340.271z"
   style="fill:#C3B9B1;" />
	<path
   id="path1111"
   d="M344.551,340.271l-72.297,98.587V227.556h181.973c28.706,63.474,37.456,128.124,37.456,154.413   l-24.381-8.127v56.889c-23.389-51.456-54.855-81.372-77.352-97.497C375.365,322.78,355.162,325.801,344.551,340.271z"
   style="fill:#C3B9B1;" />
</g>
<path
   id="path1115"
   d="M296.636,308.826h-40.635h-40.635c-8.635,46.642-32.508,81.104-32.508,133.706  c0,32.186,24.381,44.586,40.635,44.586s32.508-7.625,32.508-7.625s16.254,7.625,32.508,7.625c16.254,0,40.635-12.4,40.635-44.586  C329.144,389.93,305.27,355.468,296.636,308.826z"
   style="fill:#FFEBD2;" />
<path
   id="path1117"
   d="M424.508,174.396c5.017-72.953,1.717-151.509-14.685-169.34C405.98,0.877,401.902,0,399.163,0  c-16.199,0-60.223,49.611-89.068,84.35c-0.166-0.057-0.332-0.113-0.498-0.169c-34.663-11.72-72.531-11.72-107.194,0l-0.498,0.169  C173.06,49.611,129.036,0,112.837,0c-2.738,0-6.818,0.877-10.659,5.056c-16.402,17.832-19.703,96.386-14.685,169.34  c-52.77,76.589-67.176,173.778-67.176,207.573c43.475-99.372,105.935-132.295,132.973-142.297  c7.619-2.818,15.658-4.139,23.794-3.976c12.839,0.257,23.343,10.426,24.948,23.166l21.46,170.242h65.016l21.459-170.242  c1.606-12.74,12.11-22.91,24.949-23.166c8.136-0.163,16.175,1.157,23.794,3.976c27.036,10.001,89.498,42.924,132.973,142.297  C491.684,348.174,477.276,250.985,424.508,174.396z M113.56,16.635c7.105,3.132,24.593,20.266,44.284,41.872  c7.547,8.281,11.639,18.447,12.434,28.794c0.486,6.314-2.723,12.249-8.16,15.496c-23.3,13.911-43,31.725-59.565,51.745  C98.504,74.468,106.545,25.067,113.56,16.635z M354.157,58.507c19.69-21.608,37.179-38.74,44.284-41.872  c7.015,8.432,15.055,57.833,11.006,137.907c-16.565-20.021-36.266-37.833-59.565-51.745c-5.437-3.247-8.645-9.182-8.16-15.496  C342.518,76.956,346.609,66.789,354.157,58.507z"
   style="fill:#878791;" />
<g
   id="g1125">
	<circle
   id="circle1119"
   r="16.254"
   cy="268.191"
   cx="174.731"
   style="fill:#464655;" />
	<circle
   id="circle1121"
   r="16.254"
   cy="268.191"
   cx="337.271"
   style="fill:#464655;" />
	<path
   id="path1123"
   d="M288.509,429.106c0,15.71-14.554,34.133-32.508,34.133c-17.954,0-32.508-18.424-32.508-34.133   c0-15.71,14.554-22.756,32.508-22.756C273.954,406.35,288.509,413.396,288.509,429.106z"
   style="fill:#464655;" />
</g>
<g
   id="g1127">
</g>
<g
   id="g1129">
</g>
<g
   id="g1131">
</g>
<g
   id="g1133">
</g>
<g
   id="g1135">
</g>
<g
   id="g1137">
</g>
<g
   id="g1139">
</g>
<g
   id="g1141">
</g>
<g
   id="g1143">
</g>
<g
   id="g1145">
</g>
<g
   id="g1147">
</g>
<g
   id="g1149">
</g>
<g
   id="g1151">
</g>
<g
   id="g1153">
</g>
<g
   id="g1155">
</g>
<path
   style="fill:#f6e27d;stroke-width:0.731844"
   d="m 254.99896,-21.87732 c -93.61752,0 -169.50905,75.891522 -169.50905,169.50905 V 174.396 H 424.508 v -26.76427 c 0,-93.617528 -75.89152,-169.50905 -169.50904,-169.50905 z"
   id="path1492" /><path
   style="fill:#efc27b;stroke-width:0.731844"
   d="m 424.508,147.63173 c 0,-93.617528 -75.89225,-169.50905 -169.50904,-169.50905 V 174.396 H 424.508 Z"
   id="path1494" /><g
   transform="matrix(0.73184431,0,0,0.73184431,67.646814,-70.946018)"
   id="g1500"><path
     style="fill:#f8e99b"
     d="m 207.238,42.667 v 182.857 c 0,13.466 21.832,24.381 48.762,24.381 26.93,0 48.762,-10.915 48.762,-24.381 V 42.667 Z"
     id="path1496" /><path
     style="fill:#f8e99b"
     d="m 121.905,259.048 c -5.049,0 -9.143,-4.092 -9.143,-9.143 V 103.619 c 0,-5.051 4.094,-9.143 9.143,-9.143 5.049,0 9.143,4.092 9.143,9.143 v 146.286 c 0,5.05 -4.094,9.143 -9.143,9.143 z"
     id="path1498" /></g><path
   style="fill:#f6e27d;stroke-width:0.731844"
   d="m 353.13563,118.63678 c -3.6951,0 -6.69125,-2.99471 -6.69125,-6.69124 V 4.8869582 c 0,-3.6965458 2.99615,-6.6912527 6.69125,-6.6912527 3.69508,0 6.69124,2.9947069 6.69124,6.6912527 V 111.94554 c 0,3.6958 -2.99544,6.69124 -6.69124,6.69124 z"
   id="path1502" /><path
   style="fill:#f8e99b;stroke-width:0.731844"
   d="m 424.508,201.16101 c 9.85502,0 17.8431,-7.98808 17.8431,-17.8431 0,-9.85501 -7.98808,-17.84309 -17.8431,-17.84309 -80.29355,0 -89.21548,-17.84309 -169.50904,-17.84309 -80.29357,0 -89.21547,17.84309 -169.50905,17.84309 -9.855015,0 -17.843096,7.98808 -17.843096,17.84309 0,9.85502 7.988081,17.8431 17.843096,17.8431 z"
   id="path1504" /><g
   transform="matrix(0.73184431,0,0,0.73184431,67.646814,-70.946018)"
   id="g1514"><path
     style="fill:#f6e27d"
     d="m 256,42.667 v 207.238 c 26.93,0 48.762,-10.915 48.762,-24.381 V 42.667 Z"
     id="path1510" /><path
     style="fill:#f6e27d"
     d="M 487.619,323.048 C 377.905,323.048 365.714,298.667 256,298.667 v 73.143 h 231.619 c 13.466,0 24.381,-10.915 24.381,-24.381 0,-13.466 -10.915,-24.381 -24.381,-24.381 z"
     id="path1512" /></g><g
   transform="matrix(0.73184431,0,0,0.73184431,67.646814,-70.946018)"
   id="g1516" /><g
   transform="matrix(0.73184431,0,0,0.73184431,67.646814,-70.946018)"
   id="g1518" /><g
   transform="matrix(0.73184431,0,0,0.73184431,67.646814,-70.946018)"
   id="g1520" /><g
   transform="matrix(0.73184431,0,0,0.73184431,67.646814,-70.946018)"
   id="g1522" /><g
   transform="matrix(0.73184431,0,0,0.73184431,67.646814,-70.946018)"
   id="g1524" /><g
   transform="matrix(0.73184431,0,0,0.73184431,67.646814,-70.946018)"
   id="g1526" /><g
   transform="matrix(0.73184431,0,0,0.73184431,67.646814,-70.946018)"
   id="g1528" /><g
   transform="matrix(0.73184431,0,0,0.73184431,67.646814,-70.946018)"
   id="g1530" /><g
   transform="matrix(0.73184431,0,0,0.73184431,67.646814,-70.946018)"
   id="g1532" /><g
   transform="matrix(0.73184431,0,0,0.73184431,67.646814,-70.946018)"
   id="g1534" /><g
   transform="matrix(0.73184431,0,0,0.73184431,67.646814,-70.946018)"
   id="g1536" /><g
   transform="matrix(0.73184431,0,0,0.73184431,67.646814,-70.946018)"
   id="g1538" /><g
   transform="matrix(0.73184431,0,0,0.73184431,67.646814,-70.946018)"
   id="g1540" /><g
   transform="matrix(0.73184431,0,0,0.73184431,67.646814,-70.946018)"
   id="g1542" /><g
   transform="matrix(0.73184431,0,0,0.73184431,67.646814,-70.946018)"
   id="g1544" /></svg>
